<svg id="Layer_1" data-name="Layer 1" xmlns="http://www.w3.org/2000/svg" viewBox="0 0 229.44 216"><defs><style>.cls-1{fill:#2f9cd3;}.cls-2{fill:#18cbe8;}.cls-3{fill:#af54af;}.cls-4{fill:#fc65dc;}.cls-5{fill:#ff4200;}.cls-6{fill:#ffe000;}</style></defs><path class="cls-1" d="M28.64,52s1.44-.22,4.27-.72a104.61,104.61,0,0,1,10.55-1.12A65.72,65.72,0,0,1,56,50.46a24.66,24.66,0,0,1,10.69,3.41,10.28,10.28,0,0,1,4.8,8.36c.23,7.55-2.24,13.16-5.66,17.16a29.87,29.87,0,0,1-11.5,8.31c17.39.09,17.52,11.1,17.57,11-.14,4.72-1.53,8.54-4.18,11.37a24.66,24.66,0,0,1-9.7,6.42,51.26,51.26,0,0,1-11.5,2.79,76.32,76.32,0,0,1-9.7.58c-2.66,0-4,0-4,0ZM46,81c22.6-16.08-1.12-16.3-1.08-16.35Zm2.11,28.71C64.4,98,47.28,97.81,47.28,97.81Z"/><path class="cls-1" d="M71.45,50.42l41.33-1.53V67.76L88.61,70.27,88.39,81.1,107,77.82V91.65l-16.93,1,.53,9.57L107,100l-4.22,16.63-24.89,2.24Z"/><path class="cls-1" d="M112.58,49.43H132l-1,53.27,23.23-2.15-1.12,18.51q-18.94,0-37.56-.27Z"/><path class="cls-1" d="M152.41,49.43h19.4l-.94,53.27,23.22-2.15L193,119.06c-12.62,0-25.16-.09-37.55-.27Z"/><path class="cls-2" d="M25.86,49.61s1.43-.23,4.26-.72a101.69,101.69,0,0,1,10.56-1.13A65.59,65.59,0,0,1,53.21,48a24.67,24.67,0,0,1,10.7,3.42,10.24,10.24,0,0,1,4.8,8.35C68.94,67.35,66.47,73,63.05,77a29.74,29.74,0,0,1-11.5,8.31c17.39.09,17.52,11.1,17.57,11-.14,4.72-1.53,8.54-4.18,11.37a24.62,24.62,0,0,1-9.7,6.42,50.85,50.85,0,0,1-11.5,2.79,72.92,72.92,0,0,1-9.71.58c-2.65,0-4,0-4,0ZM43.2,78.54c22.59-16.09-1.13-16.31-1.08-16.36Zm2.11,28.7c16.3-11.63-.81-11.86-.81-11.86Z"/><path class="cls-2" d="M68.67,48,110,46.46V65.33L85.83,67.84l-.22,10.83,18.64-3.28V89.23l-16.94,1,.54,9.57,16.4-2.29L100,114.16,75.14,116.4Z"/><path class="cls-2" d="M109.8,47h19.41l-1,53.28,23.23-2.16-1.13,18.51q-18.93,0-37.55-.27Z"/><path class="cls-2" d="M149.62,47H169l-.94,53.28,23.22-2.16-1.12,18.51q-18.94,0-37.56-.27Z"/><path class="cls-3" d="M73.88,12.8c.21.1.33.19.36.29,0,.35,0,1.73-.07,4.14a42.27,42.27,0,0,0,.23,6,2.37,2.37,0,0,1-1.67.26,4.08,4.08,0,0,0-2.18.34c-.3,16.91,0,16.21,1,21.34l4.65,4.64H64.55c1.16-3.48.73-4.66.26-9.66s-.72-6.61-.75-9.86c-.27.09-.82,1-1.63,2.84s-2,4.16-3.54,7.06q-3.35-8.46-4.75-13.42c-.26,4.08-1.46,14-1.58,17.31-1.9.38-7.81.32-11.32.69.56-1.32,3.94-3.39,5.72-5.47a46.54,46.54,0,0,0,0-5.16q-.12-2.7-.49-8.59a5.87,5.87,0,0,0-1.69,1h-.3c-.06,0-.13-.08-.21-.23a22.36,22.36,0,0,1,.36-2.78,38.7,38.7,0,0,0,.36-6c0-.58.39-.87,1.16-.87L50.28,16c1.64-.23,2.93-.42,3.88-.57q.59,0,1.38,1.38,1.11,2.22,2.77,6.4a42.64,42.64,0,0,0,2.28-5.92c.79-2.46,1.31-3.68,1.58-3.68A94,94,0,0,0,73.88,12.8Z"/><path class="cls-3" d="M91.18,13.84q6.87-.18,10.93,3.78a7.45,7.45,0,0,1,2.33,4.44c.46,3.36-.34,5.77-2.41,7.21a25.34,25.34,0,0,1-6.51,3.8q3.39.8,4.48,2.68c1.19,3.8-.93,9.22-1.79,10.57,1.17,1.16,3.49,2.32,4.65,3.48C99.38,51,93.79,51,91.57,51c2.62-5.43,2.45-11.35,1.51-13.33a5.32,5.32,0,0,0-3-2.25,2.82,2.82,0,0,0-2.18.25c0,1.77,0,1.92.18,5.47-.33.58-5.75,1.83-13.1,2.9-.15-.12,3.48-3.56,5.39-6.52a68.28,68.28,0,0,1,0-10,21.93,21.93,0,0,1-2.76,1.93q-.3-.09-.3-.66,0-3.81-.44-8.8c.24-.93,1.17-1.8,2.77-2.62Q86.24,14.06,91.18,13.84ZM88,32a13.81,13.81,0,0,0,4.94-.83,20.23,20.23,0,0,0,5.77-3.39,4.44,4.44,0,0,0,.94-2q-.13-3.7-5.68-3.92c-3.35.48-5.18,1.18-5.5,2.12A39.22,39.22,0,0,0,88,32Z"/><path class="cls-3" d="M111.21,33.87q3.6.18,3.71,3.45a4.42,4.42,0,0,1-.53,1.78c-1.18,2.06-3.32,3.15-6.43,3.25-2.21,0-3.31-1.07-3.31-3.11A5.19,5.19,0,0,1,106.79,35,6.94,6.94,0,0,1,111.21,33.87Z"/><path class="cls-4" d="M72.2,12c.22.09.34.19.37.29,0,.34,0,1.72-.07,4.13a42.2,42.2,0,0,0,.23,6,2.32,2.32,0,0,1-1.67.26,4.21,4.21,0,0,0-2.19.34c-.29,16.92,0,16.21,1,21.34L74.49,49H62.88c1.16-3.49.73-4.67.26-9.66a98,98,0,0,1-.75-9.87c-.27.09-.82,1-1.63,2.85s-2,4.16-3.55,7.05q-3.33-8.46-4.75-13.42C52.21,30,51,40,50.89,43.23c-1.9.38-7.81.32-11.32.69.56-1.31,3.93-3.39,5.72-5.47a46.58,46.58,0,0,0,0-5.16c-.08-1.79-.25-4.66-.5-8.59a6,6,0,0,0-1.68,1h-.3c-.07,0-.14-.07-.21-.22A22.21,22.21,0,0,1,43,22.65a38.61,38.61,0,0,0,.36-6c0-.58.39-.87,1.16-.87l4.12-.59c1.65-.23,2.94-.42,3.89-.57q.59,0,1.38,1.38c.73,1.48,1.66,3.62,2.77,6.4a42.64,42.64,0,0,0,2.28-5.92c.78-2.45,1.31-3.68,1.57-3.68A95.71,95.71,0,0,0,72.2,12Z"/><path class="cls-4" d="M89.51,13q6.85-.16,10.93,3.78a7.56,7.56,0,0,1,2.33,4.44c.46,3.37-.35,5.77-2.41,7.21a24.78,24.78,0,0,1-6.51,3.8c2.25.54,3.75,1.43,4.48,2.68,1.19,3.81-.93,9.22-1.79,10.57,1.16,1.16,3.49,2.33,4.65,3.49-3.49,1.16-9.08,1.16-11.29,1.16,2.62-5.43,2.45-11.35,1.51-13.33a5.28,5.28,0,0,0-3-2.26,2.87,2.87,0,0,0-2.18.25c0,1.77,0,1.92.18,5.47-.33.58-5.75,1.84-13.1,2.9-.15-.11,3.48-3.55,5.38-6.51a71.49,71.49,0,0,1,0-10,22,22,0,0,1-2.75,1.93q-.3-.1-.3-.66c0-2.55-.15-5.48-.44-8.81.24-.93,1.17-1.8,2.77-2.61Q84.56,13.22,89.51,13Zm-3.2,18.2a14.06,14.06,0,0,0,4.94-.84A20.36,20.36,0,0,0,97,27a4.58,4.58,0,0,0,.94-2q-.13-3.72-5.68-3.93-5,.72-5.5,2.12A39.32,39.32,0,0,0,86.31,31.2Z"/><path class="cls-4" d="M109.54,33c2.4.12,3.64,1.28,3.71,3.45a4.47,4.47,0,0,1-.53,1.79q-1.77,3.09-6.43,3.24-3.32,0-3.31-3.11a5.21,5.21,0,0,1,2.14-4.25A6.94,6.94,0,0,1,109.54,33Z"/><path class="cls-5" d="M200.64,143.68c-4.47-3.73-8.39-5.39-11.84-4.94a11.81,11.81,0,0,0-8.37,5.18,24.54,24.54,0,0,0-4.14,10.52,23.39,23.39,0,0,0,.79,11,10.07,10.07,0,0,0,6.48,6.64c4.81,1.38,9-.72,10.67-4.85L185,165.52l5.77-10.68L212,160.18a70,70,0,0,1-8.1,18,35.52,35.52,0,0,1-12.69,12.41c-4.92,2.77-10.43,3.25-16.55,1.48-4.8-1.69-8.56-5.12-11.2-10.37A44.67,44.67,0,0,1,159,163.45a58.57,58.57,0,0,1,2.7-20.47,40.93,40.93,0,0,1,10.17-17.06c4.69-4.63,10.73-7.31,18.14-8s16.22,1.54,26.46,6.71Z"/><path class="cls-6" d="M197.71,141.92c-4.46-3.73-8.39-5.39-11.84-4.94a11.85,11.85,0,0,0-8.37,5.19,24.63,24.63,0,0,0-4.14,10.51,23.43,23.43,0,0,0,.8,11,10,10,0,0,0,6.48,6.63c4.81,1.39,9-.72,10.67-4.84l-9.22-1.76,5.78-10.68,21.24,5.34a70.07,70.07,0,0,1-8.1,18,35.59,35.59,0,0,1-12.69,12.41c-4.92,2.77-10.44,3.25-16.56,1.49-4.8-1.69-8.55-5.12-11.2-10.38a44.63,44.63,0,0,1-4.48-18.22,58.72,58.72,0,0,1,2.7-20.46A41.07,41.07,0,0,1,169,124.16c4.7-4.62,10.73-7.31,18.14-8s16.22,1.54,26.47,6.71Z"/><path class="cls-5" d="M74.57,121.49,95.88,126,78.35,201.74,65,198.9Z"/><path class="cls-5" d="M141.92,118.23l22.78,5.15-16,78.67-19.77-3.79-12.49-40.19-9.87,40.6L89.9,194.88l14.21-78L126,118.41l10.41,42Z"/><path class="cls-6" d="M71.65,119.74,93,124.26,75.42,200l-13.37-2.84Z"/><path class="cls-6" d="M139,116.48l22.78,5.15L145.72,200.3,126,196.51l-12.5-40.19-9.86,40.59L87,193.12l14.21-78,21.89,1.56,10.4,42Z"/><path class="cls-5" d="M28.67,119.69c10.46.51,19.29,2.94,26.47,7.23a31.54,31.54,0,0,1,14.5,17.71c2.5,7.56,1.91,16.46-1.81,26.81-2.41,6.08-5.65,10.83-9.67,14.17a36.76,36.76,0,0,1-12.92,7.09A51,51,0,0,1,32.09,195a60.88,60.88,0,0,1-10.28-.38l-4-.56Zm6.94,63.74,2.6-1.69a34.5,34.5,0,0,0,5.74-5c6-6.48,10.82-17.24-2.13-30.89Z"/><path class="cls-6" d="M25.74,117.94c10.46.51,19.3,2.94,26.48,7.22a31.59,31.59,0,0,1,14.49,17.71c2.51,7.56,1.91,16.46-1.81,26.82-2.4,6.08-5.65,10.83-9.66,14.16A37,37,0,0,1,42.31,191a51.38,51.38,0,0,1-13.15,2.29,62.89,62.89,0,0,1-10.27-.38l-4.05-.56Zm6.94,63.73L35.29,180A34.44,34.44,0,0,0,41,175c5.95-6.48,10.82-17.24-2.13-30.89Z"/></svg>